<svg fill="none" height="40" viewBox="0 0 158 40" width="158" xmlns="http://www.w3.org/2000/svg" xmlns:xlink="http://www.w3.org/1999/xlink"><clipPath id="a"><path d="m0 0h158v40h-158z"/></clipPath><g clip-path="url(#a)" fill="#fff"><path d="m74.3994.599609c2.8 5.399931 3.2007 14.300291.8008 21.700191-2.3 7.0999-6.8003 13.6002-14.2002 17.7002-7.4-4.1-11.9002-10.6002-14.2002-17.7002-2.3999-7.4-2.0002-16.20023.7998-21.700191 4.3 2.100001 8.5004 3.300781 13.4004 3.300781 4.8999-.10003 9.1995-1.20086 13.3994-3.300781zm-1.7002 4.100591c-3.0997.99988-4.8001 1.29962-6.5 1.5996-1.5997.19998-2.8996.40038-5.1992.4004-2.2999 0-3.7002-.2004-5.2002-.4004-1.7-.19999-3.5001-.59965-6.5-1.5996-1.9999 4.99998-1.5002 11.3002.2998 16.7002 2.1 6.0999 5.3005 11.4999 11.4004 15.2998 6.0998-3.7999 9.2994-9.2 11.3994-15.2998 1.9-5.4 2.2998-11.80021.2998-16.7002z"/><path d="m71.5996 6.7002c1.2999 3.6999.9999 8.2996 0 12.3994-1.7999 7.6998-6.4997 13.6001-10.5996 16.2002-4.1-2.6-8.7006-8.5002-10.6006-16.2002-.9999-4.0998-1.2998-8.6996 0-12.3994 1.7999.49995 3.5.89959 5.2998 1.0996 1.8.2 3.6008.4004 5.3008.4004 1.6999-.00003 3.4999-.20041 5.2998-.4004 1.6999-.2 3.4999-.59963 5.2998-1.0996zm-11 21.5996s.0006 2.9004.1006 4.4004c.0001.3998.2.5.5.5.3998-.0001.5-.2004.5-.4004 0-.5003-.0004-2.4997.0996-3.5996 0-.1-.0996-.1002-.0996-.2002-.1998-.1998-.3999-.4-.5-.4004-.2-.2-.6006-.2998-.6006-.2998zm-.3994 1.5s-.2005.0999-.4004.2998c-.2.2-.6.6008-.5 1.3008.0001.3996.1.5996.2998.8994.1.2.3004.3.4004 0 .0995-.1001-.0999-.3001 0-.7998.1-.4.2998-.5.2998-.5zm-.2998-5.2998s-.4006.1002-.6006.2002c-.2001.1001-.6002.4003-.7002.7002-.3997.8998-.0994 1.7993.9004 2.1992.4.2 1.0004.3 1.4004.5.4001.1002 1.1998.7005 1.2998.9004 0 .2-.1006.2998-.1006.2998v1.1006s.5008-.1004.8008-.4004c.2998-.2998.5997-.6.5-1.0996 0-.5999-.3005-1.0001-1.2002-1.5-.5999-.3-1.6002-.7-2.2002-1-.1 0-.3001-.2004-.2002-.4004.1-.2.2002-.2002.2002-.2002zm.5996 1.4004.5996.2998.6006.2998.0996-2.5996c-.5-.1-.8004-.1002-1.4004-.2002zm-1.5-6.7002c-.6999.2-1.6.4997-1.7002 1.3994-.1 1.4.8998 2.2004 2.2998 2.4004.7999.1 1.4999.1998 2.2998.2998.1 0 .3.0006.5.1006.1.1.2002.1998.2002.2998 0 .0999.0002.1999-.0996.2998-.0978.0978-.196.0996-.2002.0996v1.6006c.0102 0 .604-.0026 1.0996-.2998.5-.3.8004-.6006.9004-1.1006.0999-.5998.0001-.9998-.2998-1.5996-.3-.3999-.7003-.5998-1.2002-.7998-.7-.2-2-.4-3-.5-.1 0-.4004-.1008-.4004-.3008.0004-.1958.2885-.2959.2998-.2998-.0046-.0094-.1016-.2094-.1992-.5996zm.7998-1.1006s-.3997.1003-.5.2002c0 .1-.0998.1001 0 .2998.4.7999.6994 1.1004.8994 2.2002.5999.1 1.0004.1998 1.7002.2998l.1006-2.8994s-.4002-.2001-1-.2002c-.8-.1-1.1006-.0996-1.1006-.0996zm.1006-7.0996c-1.1-.4-2.2008-.5-3.3008 0-1.3998.7001-1.9997 2.5001-1.2998 4 .6 1.1999 1.7001 1.7996 3 2.0996.7.1 1.2004.2008 1.9004.3008.6999.0999 1.4003.0998 2.2002.2998.1004.0003.4001.1001.5.2998.0999.3.0991.6998-.3008.7998 0 .5962-.0983 1.9823-.0996 2 .0165-.0016 3.198-.3071 2.5-3.0996-.2-.7-.9-1.4002-1.5-1.7002-1.6-.9-3.3001-.5997-5-1.0996-.5-.1-1.1002-.4004-1.2002-.9004-.1-.3-.0997-.5998.2002-.7998.4-.2.6999.1998 1.2998.2998.4.1.8006.1 1.1006 0 .1001-.0998.2998-.1003.2998-.2002-.0002-.0998-.1997-.1999-.2998-.2002-.0999-.0999-.3002-.0995-.5-.1992-.2999-.2-.7-.4006-1-.6006h1.1992c.3.1 1.1008.1 1.3008 0 .0103-.0001.1966-.0025.0996-.0996 0-.2-.1998-.3004-.2998-.4004-.1999-.2999-.4001-.6996-.7998-.7998zm.499-1.2998c-.1-.09994-.4994-.10013-.5996.0996-.1984.19837-.1022.6921-.1006.7002 0 0 .7004.2.9004.5.2.2.3004.4996.4004.5996s.1998.2008.2998.3008c.1996.0999.2997.2994.2002.3994 0 .0999-.3.2001-.5.2002h-.9004s1.1.1002 1.5.2002c.3.1.4.1998.5.2998 0 .1.0996.3004.0996.4004-.6589-.2824-1.2294-.5632-1.8779-.6787.1301.0346.3058.1066.3779.1787.1.1.1006.2998.1006.2998-.0993.5949-.9853.5996-1 .5996v.7998c.7999.1 1.6997.1008 2.5996.3008 0 0 .1002-.2008.2002-.3008.2001-.3998.6005-.5995.9004-.8994.5-.5 1.1-.8998 1.5-1.2998.1999-.1999.2995-.2004.3994-.5.2-.6-.6996-1.1002-1.0996-.7002-.6.2-1.1002.9002-1.7002 1.2002-.1 0-.2002-.0006-.2002-.1006-.0998-.3001.1-1.0001 0-1.5 0-.2998-.1002-.2994-.2002-.3994-.6998-.1001-1.2999-.4003-1.7998-.7002z"/><path clip-rule="evenodd" d="m59.4001 11.6c.2 0 .2-.1.4-.2h.2c-.3-.3-1-.3-1.4-.3.1.2.2.1.4.2s.1.3.4.3z" fill-rule="evenodd"/><path clip-rule="evenodd" d="m19.6999 23.1-.2.1-3.6 5.6c1.2.5 2.4.8 3.8.8 1.3 0 2.6-.3 3.8-.8l-3.6-5.6z" fill-rule="evenodd"/><path clip-rule="evenodd" d="m10.6999 18c-.2.7-.3 1.4-.3 2.2 0 2.3.8 4.4 2.2 6.1l3.8-7.3c.1-.2.1-.4-.3-.4z" fill-rule="evenodd"/><path d="m28.4004 11.5h11.0996v17.5h-11v11h-17.5v-11h-11v-17.5h11v-11h17.4004zm-8.001 9.7998c-.3-.4997-.8999-.4999-1.2998 0l-5.2998 7.9004c1.7 1.1 3.7004 1.7998 5.9004 1.7998 2.1997-.0001 4.1996-.7 5.8994-1.7998zm-10.79979-4.8994c-.49987 1.1999-.69922 2.4999-.69922 3.7998.00005 3.4999 1.59961 6.5 4.09961 8.5l5-9.2998c.3-.8.1998-2.1008-1.2002-2.3008zm12.90039.6992c-1.3999.2001-1.6002 1.5008-1.2002 2.3008l5 9.2998c2.5-2 4.2005-5.0001 4.1006-8.5 0-1.2999-.3003-2.5999-.7002-3.7998zm-2.7998-7.5996c-4.4 0-8.0998 2.5002-9.79981 6.2002h7.59961c1.0999 0 1.5996-.7002 1.5996-1.2002 0-.6-.0996-.8-.5996-1.5-.5-.7999-.2001-2.2 1.0996-2.2002 1.2999 0 1.7004 1.5001 1.1006 2.2002-.5.7-.6006.9-.6006 1.5 0 .5.5006 1.2002 1.6006 1.2002h7.7002c-1.7-3.6999-5.4003-6.30008-9.7002-6.2002z"/><g clip-rule="evenodd" fill-rule="evenodd"><path d="m26.6998 14.2c-1.2-1.4-2.7-2.4-4.5-2.9.5.9.1 2.1-.4 2.7-.1.1 0 .2 0 .2z"/><path d="m23.1998 18.5c-.4 0-.4.2-.3.4l3.8 7.3c1.4-1.6 2.2-3.7 2.2-6.1 0-.8-.1-1.5-.3-2.2z"/><path d="m12.6001 14.2h4.9c.1 0 .1-.1 0-.2-.5-.6-1-1.8-.4-2.7-1.8.5-3.3 1.5-4.5 2.9z"/><path d="m84.3999 10.7v-10.500006h4c1.9-.1 3.8.7 3.8 2.699996 0 1.2-.8 2-1.9 2.3 1.3.3 2.3 1.2 2.3 2.7 0 2.1-2.6 2.80001-4.2 2.70001h-4zm4.1-6.30001c.9 0 1.5-.4 1.5-1.2s-.5-1.2-1.5-1.2h-1.8v2.5h1.8zm0 4.6c1.1 0 1.8-.2 1.8-1.4s-.7-1.4-1.8-1.4h-1.8v2.8z"/><path d="m94.1001 10.7h2.2v-10.499988h-2.2z"/><path d="m102.9 9.80002c-.5.69998-1.2 1.09998-2.3 1.09998-.6999 0-2.0999-.6-2.3999-1.59998-.1-.5-.1-.9-.1-1.2v-4.7h2.1999v4.4c0 .8.2 1.7 1.3 1.7.7 0 1.3-.6 1.3-1.7v-4.4h2.2v6c0 .4 0 .89998.1 1.29998h-2.2z"/><path d="m109 7.70001c0 .9.1 1.8 1.3 1.8.8 0 1.1-.3 1.3-.9h2c-.2 1.79999-1.6 2.39999-3.3 2.39999-2.5 0-3.5-1.39999-3.5-3.89999 0-2.2 1.3-3.9 3.5-3.9 1.4 0 2.5.5 3.1 1.7.2.4.3.8.4 1.3s.1.9.1 1.4h-4.9zm2.5-1.5c0-.8-.2-1.5-1.3-1.5-1 0-1.2.7-1.3 1.5z"/><path d="m121.2 3.59999c0-1.1-.7-2-2-2-1.6 0-2 2.4-2 3.8 0 1.5.4 3.8 2 3.8 1.4 0 2-.9 2-2h2.4c-.1 2.6-2 3.60001-4.4 3.60001-3 0-4.4-2.40001-4.4-5.50001s1.4-5.500002 4.4-5.500002c2.4 0 4.3 1 4.4 3.600002h-2.4z"/><path d="m126.7 3.40001v1.3c.5-1.2 1.4-1.4 2.5-1.4v1.9h-.9c-.4 0-.8.2-1.1.5-.2.4-.3.8-.3 1.3v3.59999h-2.2v-5.89999c0-.3 0-.9-.1-1.5h2.1z"/><path d="m134.1 11c-2.4 0-3.8-1.59999-3.8-3.89999s1.4-3.9 3.8-3.9 3.8 1.6 3.8 3.9-1.4 3.89999-3.8 3.89999zm0-1.49999c1.3 0 1.6-1.3 1.6-2.4 0-1.2-.2-2.4-1.6-2.4-1.3 0-1.6 1.3-1.6 2.4s.3 2.4 1.6 2.4z"/><path d="m143.2 5.40002c0-.5-.5-.7-1-.7-.6 0-.9.2-.9.7 0 1.2 4.2.5 4.2 3.2 0 1.59998-2 2.39998-3.3 2.39998-1.7 0-3.2-.7-3.2-2.29998h2c0 .6.6.9 1.2.9s1-.2 1-.8-1-.8-1.5-.9c-1.4-.3-2.7-.6-2.7-2.3 0-1.5 1.9-2.2 3.1-2.2 1.5 0 2.9.6 3 2.2h-1.9z"/><path d="m150.5 5.40002c0-.5-.5-.7-1-.7-.6 0-.9.2-.9.7 0 1.2 4.2.5 4.2 3.2 0 1.59998-2 2.39998-3.3 2.39998-1.7 0-3.2-.7-3.2-2.29998h2c0 .6.6.9 1.2.9s1.1-.2 1.1-.8-1.1-.8-1.5-.9c-1.4-.3-2.7-.6-2.7-2.3 0-1.5 1.9-2.2 3.1-2.2 1.5 0 2.9.6 3 2.2h-2z"/><path d="m84.3999 25v-10.5h4c1.9-.1 3.8.7 3.8 2.7 0 1.2-.8 2-1.9 2.3 1.3.3 2.3 1.2 2.3 2.7 0 2.1-2.6 2.8-4.2 2.7h-4zm4.1-6.3c.9 0 1.5-.4 1.5-1.2s-.5-1.2-1.5-1.2h-1.8v2.5h1.8zm0 4.6c1.1 0 1.8-.2 1.8-1.4s-.7-1.4-1.8-1.4h-1.8v2.8z"/><path d="m94.1001 25h2.2v-10.5h-2.2z"/><path d="m102.9 24.1c-.5.7-1.2 1.1-2.3 1.1-.6999 0-2.0999-.6-2.3999-1.6-.1-.5-.1-.9-.1-1.2v-4.8h2.1999v4.4c0 .8.2 1.7 1.3 1.7.7 0 1.3-.6 1.3-1.7v-4.4h2.2v6c0 .4 0 .9.1 1.3h-2.2z"/><path d="m109 21.9c0 .9.1 1.8 1.3 1.8.8 0 1.1-.3 1.3-.9h2c-.2 1.8-1.6 2.4-3.3 2.4-2.5 0-3.5-1.4-3.5-3.9 0-2.2 1.3-3.9 3.5-3.9 1.4 0 2.5.5 3.1 1.7.2.4.3.8.4 1.3s.1.9.1 1.4h-4.9zm2.5-1.4c0-.8-.2-1.5-1.3-1.5-1 0-1.2.7-1.3 1.5z"/><path d="m120.9 17.5c-.1-1.1-.7-1.6-1.8-1.6-.8 0-1.7.4-1.7 1.4 0 1.1 1 1.3 1.9 1.5 1.6.4 4 .9 4 3 0 2.6-2.3 3.5-4.5 3.5-2.4 0-4.1-.9-4-3.6h2.3c-.1 1.2.6 2 1.8 2 .9 0 2.1-.3 2.1-1.4 0-1.2-1.5-1.3-2.4-1.6-1.5-.4-3.5-1-3.5-2.9 0-2.4 2.2-3.5 4.4-3.5 2 0 3.6 1.1 3.6 3.2z"/><path d="m124.9 25v-10.5h2.2v4.1c.5-.7 1.1-1.1 2.2-1.1.7 0 2.1.5 2.4 1.6.1.5.1.9.1 1.2v4.7h-2.2v-4.4c0-.8-.2-1.7-1.3-1.7-.7 0-1.3.6-1.3 1.7v4.4z"/><path d="m133.7 16.4h2.3v-1.9h-2.3zm.1 8.6h2.2v-7.3h-2.2z"/><path d="m139.8 21.9c0 .9.1 1.8 1.3 1.8.8 0 1.1-.3 1.3-.9h2c-.2 1.8-1.6 2.4-3.3 2.4-2.5 0-3.5-1.4-3.5-3.9 0-2.2 1.3-3.9 3.5-3.9 1.4 0 2.5.5 3.1 1.7.2.4.3.8.4 1.3s.1.9.1 1.4h-4.9zm2.5-1.4c0-.8-.2-1.5-1.3-1.5-1 0-1.2.7-1.3 1.5z"/><path d="m146 25h2.2v-10.5h-2.2z"/><path d="m155.1 14.5h2.2v9.1c0 .5 0 1 .1 1.5h-2.2c0-.4-.1-.7-.1-1-.5.9-1.3 1.3-2.2 1.3-2.1 0-3.1-2-3.1-3.9 0-2 1.2-3.9 3.4-3.9.8 0 1.5.5 2 1.1v-4.2zm-1.6 9.3c1.2 0 1.6-1.4 1.6-2.4s-.4-2.4-1.6-2.4c-1.4 0-1.6 1.3-1.6 2.4s.2 2.4 1.6 2.4z"/><path d="m69.2 38.1v-.5h.3c.2 0 .4 0 .4.2 0 .3-.2.3-.4.3zm0 .2h.3l.4.7h.3l-.5-.7c.2 0 .4-.2.4-.5s-.2-.5-.6-.5h-.6v1.7h.3zm.3 1.3c.8 0 1.5-.6 1.5-1.5 0-.8-.7-1.5-1.5-1.5s-1.5.6-1.5 1.5.7 1.5 1.5 1.5zm-1.2-1.4c0-.7.5-1.2 1.2-1.2s1.2.5 1.2 1.2-.5 1.2-1.2 1.2-1.2-.5-1.2-1.2z"/><path d="m31.4998 38.4v-.5h.3c.2 0 .4 0 .4.2 0 .3-.2.3-.4.3zm0 .2h.3l.4.7h.3l-.5-.7c.2 0 .4-.2.4-.5s-.2-.5-.6-.5h-.6v1.7h.3zm.3 1.4c.8 0 1.5-.6 1.5-1.5 0-.8-.7-1.5-1.5-1.5s-1.5.6-1.5 1.5c0 .8.7 1.5 1.5 1.5zm-1.2-1.5c0-.7.5-1.2 1.2-1.2s1.2.5 1.2 1.2-.5 1.2-1.2 1.2-1.2-.5-1.2-1.2z"/><path d="m91.1999 36-2.2-5.8-2.3 5.8zm-6.8 3.6 4.1-10.2h1.1l4.1 10.2h-1l-1.1-2.8h-5.1l-1.1 2.8z"/><path d="m95.5001 39.6h-.8v-5.5c0-.6 0-1.1-.1-1.6h.9v1c.3-.7.9-1.2 1.6-1.3h.9v.8c-.2 0-.4-.1-.5-.1-1.3 0-1.9.9-2 2.3z"/><path d="m99.1 39.6h.8v-7.1h-.8zm-.1-9.2h1v-1.1h-1z"/><path d="m101.4 38.8 4.2-5.6h-4.2v-.8h5.2v.8l-4.1 5.6h4.1v.8h-5.2z"/><path d="m110.9 33.1c-1.7 0-2.4 1.7-2.4 3s.7 3 2.4 3 2.4-1.7 2.4-3c0-1.4-.7-3-2.4-3zm3.3 3c0 1.9-1 3.8-3.3 3.8s-3.3-1.9-3.3-3.8 1.1-3.8 3.3-3.8c2.3 0 3.3 1.9 3.3 3.8z"/><path d="m116.6 39.6h-.9v-5.5c0-.6 0-1.1-.1-1.6h.9v1.1c.5-.9 1.3-1.3 2.2-1.3 2.3 0 2.5 2.1 2.5 2.9v4.5h-.9v-4.7c0-1.2-.7-2-1.9-2-1.4 0-2 1.2-2 2.5v4.1z"/><path d="m125.3 39.1c1.9 0 2.2-1.5 2.1-3-1.2 0-3.7-.2-3.7 1.6 0 .9.7 1.4 1.6 1.4zm2.1-4.5c-.1-1.2-.7-1.5-1.7-1.5-.9 0-1.6.3-1.7 1.2h-.9c.2-1.5 1.3-2 2.7-2 1.6 0 2.6.7 2.5 2.4v3.3c0 .6 0 1.1.1 1.6h-.9v-1.1.1c-.3.6-1.3 1.2-2.2 1.2-1.3 0-2.4-.8-2.4-2.2 0-1 .6-1.7 1.4-2.1.9-.4 2.2-.3 3.2-.3v-.6z"/></g></g></svg>