<svg width="149" height="38" viewBox="0 0 149 38" fill="none" xmlns="http://www.w3.org/2000/svg">
<g clip-path="url(#clip0_4015_184)">
<path fill-rule="evenodd" clip-rule="evenodd" d="M26.5602 26.9002V13.9954C20.3797 13.9954 15.37 18.9886 15.3472 25.1598V26.8926H26.5678" fill="white"/>
<path fill-rule="evenodd" clip-rule="evenodd" d="M11.5081 26.9001C5.3124 25.6537 0.652344 20.1817 0.652344 13.6229C0.652344 7.06414 5.3124 1.59213 11.5081 0.338135V26.9001Z" fill="white"/>
<path fill-rule="evenodd" clip-rule="evenodd" d="M15.3391 0.338135V13.2429C21.512 13.2429 26.5217 8.24974 26.5522 2.07854V0.338135H15.3315" fill="white"/>
<path fill-rule="evenodd" clip-rule="evenodd" d="M45.6486 24.3693C41.954 24.3693 38.9968 23.2369 36.8683 21.0025C34.9525 19.0037 33.9795 16.4881 33.9795 13.5241C33.9795 10.3929 35.0286 7.69493 37.1115 5.50613C39.4454 3.04373 42.6154 1.78973 46.5229 1.78973C48.8947 1.78973 51.0309 2.25333 52.8706 3.18053C52.9542 3.21853 52.9998 3.30213 52.9998 3.39333V7.98373C52.9998 8.09773 52.9238 8.18893 52.8097 8.21173C52.8097 8.21173 52.7793 8.21173 52.7565 8.21173C52.6577 8.21173 52.5817 8.15093 52.5437 8.05973C51.4338 5.30093 49.252 3.96333 45.8615 3.96333C43.254 3.96333 41.1558 4.89813 39.6278 6.72973C38.229 8.38653 37.522 10.4613 37.522 12.8857C37.522 15.3101 38.2518 17.4761 39.6962 19.2013C41.2927 21.1013 43.482 22.0665 46.2112 22.0665C48.9403 22.0665 51.1373 20.9797 53.1518 18.8441C53.1975 18.7985 53.2583 18.7757 53.3267 18.7757C53.3571 18.7757 53.3799 18.7757 53.4103 18.7909C53.5015 18.8289 53.5623 18.9125 53.5623 19.0113V21.0709C53.5623 21.1317 53.5395 21.1925 53.5015 21.2381C51.487 23.3281 48.8491 24.3845 45.6638 24.3845" fill="white"/>
<path fill-rule="evenodd" clip-rule="evenodd" d="M96.8254 14.573C96.8254 16.8226 96.1869 18.6618 94.9173 20.045C93.6554 21.4206 91.9981 22.1198 89.9836 22.1198C87.741 22.1198 85.9165 21.3218 84.5405 19.741C83.157 18.145 82.45 16.055 82.45 13.5242C82.45 11.3126 83.0885 9.51135 84.3429 8.16616C85.5972 6.82856 87.2621 6.14455 89.2994 6.14455C91.5572 6.14455 93.3969 6.93495 94.7577 8.50055C96.1261 10.0738 96.8254 12.1182 96.8254 14.573ZM89.9228 3.93296C86.8135 3.93296 84.2289 4.93615 82.2447 6.90455C80.2606 8.87295 79.2495 11.381 79.2495 14.345C79.2495 17.309 80.1922 19.6498 82.0547 21.5118C83.9172 23.3814 86.3802 24.3314 89.3602 24.3314C92.4923 24.3314 95.0846 23.3054 97.0763 21.2914C98.9996 19.3458 99.9727 16.8682 99.9727 13.9194C99.9727 10.9706 99.0376 8.61455 97.1979 6.74495C95.3582 4.87535 92.9028 3.92535 89.9228 3.92535V3.93296Z" fill="white"/>
<path fill-rule="evenodd" clip-rule="evenodd" d="M107.606 6.42572C107.606 6.37252 107.606 6.32691 107.621 6.27371C107.72 5.65051 108.199 5.15651 108.814 5.03491C108.829 5.03491 108.837 5.02731 108.837 5.02731C109.004 4.98171 109.103 4.84492 109.096 4.68532C109.08 4.51812 108.944 4.38892 108.769 4.38892H103.28C103.113 4.38892 102.968 4.51812 102.953 4.68532C102.938 4.84492 103.044 4.98171 103.219 5.02731H103.234C103.926 5.17171 104.443 5.77972 104.451 6.51692V6.63091V6.63852V21.6561V21.7929C104.451 22.5225 103.919 23.1381 103.227 23.2749H103.212C103.158 23.2749 103.113 23.3053 103.075 23.3509C103.014 23.4193 102.976 23.5181 102.984 23.6093C102.991 23.7765 103.136 23.9133 103.31 23.9133H108.769C108.951 23.9133 109.096 23.7689 109.096 23.5865C109.096 23.4421 109.012 23.3053 108.867 23.2901C108.852 23.2901 108.845 23.2825 108.845 23.2825C108.13 23.1533 107.598 22.5377 107.59 21.8005V21.6181V6.56252V6.54731V6.52451C107.59 6.52451 107.598 6.46371 107.598 6.44091" fill="white"/>
<path fill-rule="evenodd" clip-rule="evenodd" d="M129.598 19.1406C129.477 19.0874 129.332 19.1254 129.241 19.2166C127.462 21.1014 125.402 22.059 123.121 22.059C120.719 22.059 118.788 21.2154 117.389 19.5434C116.112 18.0234 115.466 16.1538 115.466 13.9726C115.466 11.7914 116.089 10.0054 117.321 8.54616C118.659 6.93496 120.506 6.11415 122.802 6.11415C125.774 6.11415 127.698 7.29216 128.671 9.70896C128.732 9.85336 128.876 9.93696 129.036 9.90656C129.188 9.87616 129.302 9.73935 129.302 9.58735V5.48336C129.302 5.36176 129.233 5.24775 129.127 5.19455C127.47 4.35855 125.539 3.94055 123.403 3.94055C119.875 3.94055 117.017 5.07296 114.903 7.29976C113.026 9.28336 112.068 11.7154 112.068 14.5502C112.068 17.233 112.95 19.5054 114.683 21.3218C116.606 23.3434 119.275 24.3694 122.62 24.3694C125.508 24.3694 127.888 23.4118 129.712 21.5194C129.773 21.4586 129.803 21.3826 129.803 21.299V19.4598C129.803 19.323 129.72 19.209 129.598 19.1558" fill="white"/>
<path fill-rule="evenodd" clip-rule="evenodd" d="M148.109 18.9277C147.949 18.8821 147.782 18.9657 147.721 19.1177C147.706 19.1633 147.683 19.2014 147.66 19.247C147.113 20.7366 145.684 21.7929 144.004 21.8005H143.707C143.654 21.8005 143.609 21.8005 143.555 21.8005H137.694V14.9453H143.54C144.756 14.9453 145.41 15.2949 145.524 16.0017C145.547 16.1613 145.684 16.2753 145.851 16.2753H145.874C146.041 16.2601 146.178 16.1157 146.178 15.9485V11.8977C146.178 11.7305 146.056 11.5937 145.889 11.5709C145.714 11.5481 145.57 11.6622 145.532 11.8294C145.38 12.5514 144.718 12.9009 143.51 12.9009H137.694V6.23575H144.285C145.616 6.23575 146.725 7.20095 146.976 8.46255C146.976 8.47775 146.984 8.48535 146.984 8.48535C147.037 8.64495 147.151 8.75135 147.303 8.75135H147.334C147.508 8.72855 147.638 8.59175 147.638 8.42455V4.69295C147.638 4.51055 147.493 4.36615 147.311 4.36615H133.224C133.057 4.36615 132.913 4.50295 132.897 4.67015C132.89 4.83735 133.011 4.98935 133.171 5.01215H133.201L133.217 5.01975C133.946 5.12615 134.509 5.74935 134.517 6.50935V21.7473C134.517 22.4617 134.015 23.0621 133.338 23.2141C133.338 23.2141 133.315 23.2218 133.3 23.2294H133.285C133.11 23.2522 132.989 23.4118 132.996 23.579C133.011 23.7462 133.156 23.883 133.323 23.883H147.303C147.463 23.883 147.6 23.769 147.63 23.6094L148.345 19.2773C148.367 19.1101 148.269 18.9582 148.109 18.9126" fill="white"/>
<mask id="mask0_4015_184" style="mask-type:luminance" maskUnits="userSpaceOnUse" x="132" y="4" width="17" height="20">
<path d="M148.109 18.9277C147.949 18.8821 147.782 18.9657 147.721 19.1177C147.706 19.1633 147.683 19.2014 147.66 19.247C147.113 20.7366 145.684 21.7929 144.004 21.8005H143.707C143.654 21.8005 143.609 21.8005 143.555 21.8005H137.694V14.9453H143.54C144.756 14.9453 145.41 15.2949 145.524 16.0017C145.547 16.1613 145.684 16.2753 145.851 16.2753H145.874C146.041 16.2601 146.178 16.1157 146.178 15.9485V11.8977C146.178 11.7305 146.056 11.5937 145.889 11.5709C145.714 11.5481 145.57 11.6622 145.532 11.8294C145.38 12.5514 144.718 12.9009 143.51 12.9009H137.694V6.23575H144.285C145.616 6.23575 146.725 7.20095 146.976 8.46255C146.976 8.47775 146.984 8.48535 146.984 8.48535C147.037 8.64495 147.151 8.75135 147.303 8.75135H147.334C147.508 8.72855 147.638 8.59175 147.638 8.42455V4.69295C147.638 4.51055 147.493 4.36615 147.311 4.36615H133.224C133.057 4.36615 132.913 4.50295 132.897 4.67015C132.89 4.83735 133.011 4.98935 133.171 5.01215H133.201L133.217 5.01975C133.946 5.12615 134.509 5.74935 134.517 6.50935V21.7473C134.517 22.4617 134.015 23.0621 133.338 23.2141C133.338 23.2141 133.315 23.2218 133.3 23.2294H133.285C133.11 23.2522 132.989 23.4118 132.996 23.579C133.011 23.7462 133.156 23.883 133.323 23.883H147.303C147.463 23.883 147.6 23.769 147.63 23.6094L148.345 19.2773C148.367 19.1101 148.269 18.9582 148.109 18.9126" fill="white"/>
</mask>
<g mask="url(#mask0_4015_184)">
<path d="M152.997 -0.262268H128.252V28.5493H152.997V-0.262268Z" fill="white"/>
</g>
<path fill-rule="evenodd" clip-rule="evenodd" d="M75.1903 6.51692C75.1903 5.78732 75.7072 5.18692 76.3914 5.04252H76.4066C76.5662 4.98932 76.6651 4.85252 76.6575 4.69292C76.6423 4.52572 76.5054 4.38892 76.3306 4.38892H70.8419C70.6746 4.38892 70.5302 4.51812 70.515 4.69292C70.5074 4.84492 70.6062 4.98931 70.7811 5.03491H70.7963C71.4881 5.18691 71.9822 5.79491 71.9898 6.52451V12.9237H61.2937V6.52451C61.2937 5.77971 61.8335 5.17172 62.5405 5.04252H62.5557C62.7077 4.98932 62.8065 4.85251 62.7913 4.70051C62.7761 4.53331 62.6393 4.39652 62.4644 4.39652H56.9454C56.7781 4.39652 56.6337 4.52571 56.6185 4.70051C56.6033 4.85251 56.7021 4.99691 56.8541 5.03491C56.8541 5.03491 56.915 5.05011 56.9986 5.08051C57.5763 5.24011 58.0097 5.72652 58.0933 6.32692C58.0933 6.37252 58.1085 6.42572 58.1085 6.47892V6.53212V6.57012V21.7777C58.1085 22.4921 57.6067 23.0925 56.9378 23.2445L56.8161 23.2977C56.6869 23.3509 56.6033 23.4801 56.6185 23.6169C56.6261 23.7841 56.7705 23.9209 56.9454 23.9209H62.4644C62.6393 23.9209 62.7761 23.7841 62.7913 23.6169C62.7989 23.4801 62.7153 23.3509 62.5861 23.2977L62.4644 23.2521V23.2369C61.7955 23.0773 61.3013 22.4845 61.2937 21.7701V21.6105V15.0137H71.9898C71.9898 15.0137 71.9898 21.4813 71.9898 21.6029C71.9898 21.9905 71.9594 22.2109 71.9138 22.2869C71.7389 22.7581 71.336 23.1229 70.8419 23.2369L70.7203 23.2977C70.5986 23.3585 70.5226 23.4801 70.5302 23.6093C70.5454 23.7765 70.6823 23.9133 70.8571 23.9133H76.3534C76.5358 23.9133 76.6803 23.7689 76.6803 23.5865C76.6803 23.4649 76.6118 23.3509 76.4978 23.2977L76.3686 23.2369C75.6996 23.0773 75.2055 22.4845 75.2055 21.7701V6.52451" fill="white"/>
<mask id="mask1_4015_184" style="mask-type:luminance" maskUnits="userSpaceOnUse" x="56" y="4" width="21" height="20">
<path d="M75.1903 6.51692C75.1903 5.78732 75.7072 5.18692 76.3914 5.04252H76.4066C76.5662 4.98932 76.6651 4.85252 76.6575 4.69292C76.6423 4.52572 76.5054 4.38892 76.3306 4.38892H70.8419C70.6746 4.38892 70.5302 4.51812 70.515 4.69292C70.5074 4.84492 70.6062 4.98931 70.7811 5.03491H70.7963C71.4881 5.18691 71.9822 5.79491 71.9898 6.52451V12.9237H61.2937V6.52451C61.2937 5.77971 61.8335 5.17172 62.5405 5.04252H62.5557C62.7077 4.98932 62.8065 4.85251 62.7913 4.70051C62.7761 4.53331 62.6393 4.39652 62.4644 4.39652H56.9454C56.7781 4.39652 56.6337 4.52571 56.6185 4.70051C56.6033 4.85251 56.7021 4.99691 56.8541 5.03491C56.8541 5.03491 56.915 5.05011 56.9986 5.08051C57.5763 5.24011 58.0097 5.72652 58.0933 6.32692C58.0933 6.37252 58.1085 6.42572 58.1085 6.47892V6.53212V6.57012V21.7777C58.1085 22.4921 57.6067 23.0925 56.9378 23.2445L56.8161 23.2977C56.6869 23.3509 56.6033 23.4801 56.6185 23.6169C56.6261 23.7841 56.7705 23.9209 56.9454 23.9209H62.4644C62.6393 23.9209 62.7761 23.7841 62.7913 23.6169C62.7989 23.4801 62.7153 23.3509 62.5861 23.2977L62.4644 23.2521V23.2369C61.7955 23.0773 61.3013 22.4845 61.2937 21.7701V21.6105V15.0137H71.9898C71.9898 15.0137 71.9898 21.4813 71.9898 21.6029C71.9898 21.9905 71.9594 22.2109 71.9138 22.2869C71.7389 22.7581 71.336 23.1229 70.8419 23.2369L70.7203 23.2977C70.5986 23.3585 70.5226 23.4801 70.5302 23.6093C70.5454 23.7765 70.6823 23.9133 70.8571 23.9133H76.3534C76.5358 23.9133 76.6803 23.7689 76.6803 23.5865C76.6803 23.4649 76.6118 23.3509 76.4978 23.2977L76.3686 23.2369C75.6996 23.0773 75.2055 22.4845 75.2055 21.7701V6.52451" fill="white"/>
</mask>
<g mask="url(#mask1_4015_184)">
<path d="M81.3175 -0.262268H51.9736V28.5493H81.3175V-0.262268Z" fill="white"/>
</g>
<path fill-rule="evenodd" clip-rule="evenodd" d="M66.3565 35.0246V37.5554H65.2998V31.5438H66.3565V34.0442H69.2225V31.5438H70.2791V37.5554H69.2225V35.0246H66.3565Z" fill="white"/>
<mask id="mask2_4015_184" style="mask-type:luminance" maskUnits="userSpaceOnUse" x="65" y="31" width="6" height="7">
<path d="M66.3565 35.0246V37.5554H65.2998V31.5438H66.3565V34.0442H69.2225V31.5438H70.2791V37.5554H69.2225V35.0246H66.3565Z" fill="white"/>
</mask>
<g mask="url(#mask2_4015_184)">
<path d="M74.9241 26.9001H60.6475V42.2065H74.9241V26.9001Z" fill="white"/>
</g>
<path fill-rule="evenodd" clip-rule="evenodd" d="M77.8433 32.4101C76.6497 32.4101 75.8135 33.3677 75.8135 34.5457C75.8135 35.7237 76.6649 36.6965 77.8585 36.6965C79.052 36.6965 79.8882 35.7389 79.8882 34.5685C79.8882 33.3981 79.0368 32.4177 77.8433 32.4177V32.4101ZM77.8433 37.6617C75.996 37.6617 74.7036 36.2633 74.7036 34.5609C74.7036 32.8585 76.0112 31.4449 77.8585 31.4449C79.7058 31.4449 80.9981 32.8433 80.9981 34.5457C80.9981 36.2481 79.6905 37.6617 77.8433 37.6617Z" fill="white"/>
<mask id="mask3_4015_184" style="mask-type:luminance" maskUnits="userSpaceOnUse" x="74" y="31" width="7" height="7">
<path d="M77.8433 32.4101C76.6497 32.4101 75.8135 33.3677 75.8135 34.5457C75.8135 35.7237 76.6649 36.6965 77.8585 36.6965C79.052 36.6965 79.8882 35.7389 79.8882 34.5685C79.8882 33.3981 79.0368 32.4177 77.8433 32.4177V32.4101ZM77.8433 37.6617C75.996 37.6617 74.7036 36.2633 74.7036 34.5609C74.7036 32.8585 76.0112 31.4449 77.8585 31.4449C79.7058 31.4449 80.9981 32.8433 80.9981 34.5457C80.9981 36.2481 79.6905 37.6617 77.8433 37.6617Z" fill="white"/>
</mask>
<g mask="url(#mask3_4015_184)">
<path d="M85.6506 26.7938H70.0664V42.3054H85.6506V26.7938Z" fill="white"/>
</g>
<path fill-rule="evenodd" clip-rule="evenodd" d="M87.5359 37.5554H86.4716V32.5242H84.5635V31.5438H89.444V32.5242H87.5359V37.5554Z" fill="white"/>
<mask id="mask4_4015_184" style="mask-type:luminance" maskUnits="userSpaceOnUse" x="84" y="31" width="6" height="7">
<path d="M87.5359 37.5554H86.4716V32.5242H84.5635V31.5438H89.444V32.5242H87.5359V37.5554Z" fill="white"/>
</mask>
<g mask="url(#mask4_4015_184)">
<path d="M94.0889 26.9001H79.9111V42.2065H94.0889V26.9001Z" fill="white"/>
</g>
<path fill-rule="evenodd" clip-rule="evenodd" d="M98.4524 32.4862H95.0542V34.0518H98.0723V34.9942H95.0542V36.613H98.498V37.5554H93.9976V31.5438H98.4524V32.4862Z" fill="white"/>
<mask id="mask5_4015_184" style="mask-type:luminance" maskUnits="userSpaceOnUse" x="93" y="31" width="6" height="7">
<path d="M98.4524 32.4862H95.0542V34.0518H98.0723V34.9942H95.0542V36.613H98.498V37.5554H93.9976V31.5438H98.4524V32.4862Z" fill="white"/>
</mask>
<g mask="url(#mask5_4015_184)">
<path d="M103.15 26.9001H89.3525V42.2065H103.15V26.9001Z" fill="white"/>
</g>
<path fill-rule="evenodd" clip-rule="evenodd" d="M103.781 31.5438H104.838V36.5978H108V37.5554H103.781V31.5438Z" fill="white"/>
<mask id="mask6_4015_184" style="mask-type:luminance" maskUnits="userSpaceOnUse" x="103" y="31" width="6" height="7">
<path d="M103.781 31.5438H104.838V36.5978H108V37.5554H103.781V31.5438Z" fill="white"/>
</mask>
<g mask="url(#mask6_4015_184)">
<path d="M112.645 26.9001H99.1289V42.2065H112.645V26.9001Z" fill="white"/>
</g>
<path fill-rule="evenodd" clip-rule="evenodd" d="M113.938 34.067C115.207 34.3786 115.869 34.827 115.869 35.8378C115.869 36.9702 114.987 37.639 113.717 37.639C112.797 37.639 111.931 37.3198 111.208 36.6738L111.847 35.9214C112.425 36.4154 112.995 36.7042 113.748 36.7042C114.401 36.7042 114.812 36.4002 114.812 35.9366C114.812 35.4958 114.569 35.2678 113.451 35.0094C112.174 34.6978 111.452 34.3178 111.452 33.2082C111.452 32.1594 112.311 31.4526 113.504 31.4526C114.379 31.4526 115.078 31.7186 115.686 32.205L115.116 33.003C114.576 32.6002 114.029 32.3874 113.481 32.3874C112.866 32.3874 112.501 32.7066 112.501 33.1094C112.501 33.5806 112.775 33.7858 113.93 34.067" fill="white"/>
<path fill-rule="evenodd" clip-rule="evenodd" d="M117.419 31.8478H117.495C117.495 31.8478 117.526 31.8478 117.549 31.8478C117.564 31.8478 117.579 31.8478 117.594 31.8402C117.609 31.8402 117.617 31.825 117.625 31.8174C117.632 31.8022 117.64 31.7946 117.64 31.7718C117.64 31.749 117.64 31.7338 117.625 31.7262C117.617 31.7186 117.602 31.7034 117.594 31.7034C117.579 31.7034 117.564 31.6958 117.549 31.6958C117.533 31.6958 117.518 31.6958 117.495 31.6958H117.419V31.863V31.8478ZM117.313 31.5894H117.541C117.609 31.5894 117.663 31.6046 117.701 31.635C117.731 31.6654 117.754 31.711 117.754 31.7642C117.754 31.8174 117.739 31.8554 117.716 31.8782C117.685 31.901 117.655 31.9162 117.617 31.9238L117.769 32.1746H117.655L117.511 31.9314H117.435V32.1746H117.328V31.5818L117.313 31.5894ZM117.085 31.8858C117.085 31.9466 117.092 31.9998 117.115 32.053C117.138 32.1062 117.168 32.1518 117.207 32.1898C117.245 32.2278 117.29 32.2582 117.343 32.281C117.397 32.3038 117.45 32.3114 117.511 32.3114C117.571 32.3114 117.625 32.3038 117.678 32.281C117.731 32.2582 117.777 32.2278 117.815 32.1898C117.853 32.1518 117.883 32.1062 117.906 32.053C117.929 31.9998 117.936 31.9466 117.936 31.8858C117.936 31.825 117.929 31.7718 117.906 31.7186C117.883 31.6654 117.853 31.6198 117.815 31.5818C117.777 31.5438 117.731 31.5134 117.678 31.4906C117.625 31.4678 117.571 31.4602 117.511 31.4602C117.45 31.4602 117.397 31.4754 117.343 31.4906C117.29 31.5134 117.245 31.5438 117.207 31.5818C117.168 31.6198 117.138 31.6654 117.115 31.7186C117.092 31.7718 117.085 31.825 117.085 31.8858ZM116.994 31.8858C116.994 31.8174 117.009 31.749 117.032 31.6882C117.062 31.6274 117.092 31.5742 117.146 31.521C117.191 31.4754 117.245 31.4374 117.313 31.407C117.374 31.3766 117.442 31.369 117.511 31.369C117.579 31.369 117.647 31.3842 117.708 31.407C117.769 31.4374 117.822 31.4678 117.875 31.521C117.921 31.5666 117.959 31.6198 117.99 31.6882C118.02 31.749 118.028 31.8174 118.028 31.8858C118.028 31.9542 118.012 32.0226 117.99 32.0834C117.959 32.1442 117.929 32.1974 117.875 32.2506C117.83 32.2962 117.777 32.3342 117.708 32.3646C117.647 32.395 117.579 32.4026 117.511 32.4026C117.442 32.4026 117.374 32.3874 117.313 32.3646C117.252 32.3342 117.199 32.3038 117.146 32.2506C117.1 32.205 117.062 32.1518 117.032 32.0834C117.001 32.0226 116.994 31.9542 116.994 31.8858Z" fill="white"/>
<mask id="mask7_4015_184" style="mask-type:luminance" maskUnits="userSpaceOnUse" x="116" y="31" width="3" height="2">
<path d="M117.419 31.8478H117.495C117.495 31.8478 117.526 31.8478 117.549 31.8478C117.564 31.8478 117.579 31.8478 117.594 31.8402C117.609 31.8402 117.617 31.825 117.625 31.8174C117.632 31.8022 117.64 31.7946 117.64 31.7718C117.64 31.749 117.64 31.7338 117.625 31.7262C117.617 31.7186 117.602 31.7034 117.594 31.7034C117.579 31.7034 117.564 31.6958 117.549 31.6958C117.533 31.6958 117.518 31.6958 117.495 31.6958H117.419V31.863V31.8478ZM117.313 31.5894H117.541C117.609 31.5894 117.663 31.6046 117.701 31.635C117.731 31.6654 117.754 31.711 117.754 31.7642C117.754 31.8174 117.739 31.8554 117.716 31.8782C117.685 31.901 117.655 31.9162 117.617 31.9238L117.769 32.1746H117.655L117.511 31.9314H117.435V32.1746H117.328V31.5818L117.313 31.5894ZM117.085 31.8858C117.085 31.9466 117.092 31.9998 117.115 32.053C117.138 32.1062 117.168 32.1518 117.207 32.1898C117.245 32.2278 117.29 32.2582 117.343 32.281C117.397 32.3038 117.45 32.3114 117.511 32.3114C117.571 32.3114 117.625 32.3038 117.678 32.281C117.731 32.2582 117.777 32.2278 117.815 32.1898C117.853 32.1518 117.883 32.1062 117.906 32.053C117.929 31.9998 117.936 31.9466 117.936 31.8858C117.936 31.825 117.929 31.7718 117.906 31.7186C117.883 31.6654 117.853 31.6198 117.815 31.5818C117.777 31.5438 117.731 31.5134 117.678 31.4906C117.625 31.4678 117.571 31.4602 117.511 31.4602C117.45 31.4602 117.397 31.4754 117.343 31.4906C117.29 31.5134 117.245 31.5438 117.207 31.5818C117.168 31.6198 117.138 31.6654 117.115 31.7186C117.092 31.7718 117.085 31.825 117.085 31.8858ZM116.994 31.8858C116.994 31.8174 117.009 31.749 117.032 31.6882C117.062 31.6274 117.092 31.5742 117.146 31.521C117.191 31.4754 117.245 31.4374 117.313 31.407C117.374 31.3766 117.442 31.369 117.511 31.369C117.579 31.369 117.647 31.3842 117.708 31.407C117.769 31.4374 117.822 31.4678 117.875 31.521C117.921 31.5666 117.959 31.6198 117.99 31.6882C118.02 31.749 118.028 31.8174 118.028 31.8858C118.028 31.9542 118.012 32.0226 117.99 32.0834C117.959 32.1442 117.929 32.1974 117.875 32.2506C117.83 32.2962 117.777 32.3342 117.708 32.3646C117.647 32.395 117.579 32.4026 117.511 32.4026C117.442 32.4026 117.374 32.3874 117.313 32.3646C117.252 32.3342 117.199 32.3038 117.146 32.2506C117.1 32.205 117.062 32.1518 117.032 32.0834C117.001 32.0226 116.994 31.9542 116.994 31.8858Z" fill="white"/>
</mask>
<g mask="url(#mask7_4015_184)">
<path d="M122.68 26.7253H112.349V37.0537H122.68V26.7253Z" fill="white"/>
</g>
</g>
<defs>
<clipPath id="clip0_4015_184">
<rect width="149" height="38" fill="white"/>
</clipPath>
</defs>
</svg>
