<svg width="182" height="52" viewBox="0 0 182 52" fill="none" xmlns="http://www.w3.org/2000/svg">
<g clip-path="url(#clip0_4015_243)">
<path d="M38.3576 17.045C38.3576 26.135 30.9926 33.5 21.9101 33.5C12.8276 33.5 5.45508 26.135 5.45508 17.045C5.45508 7.95497 12.8201 0.597473 21.9101 0.597473C31.0001 0.597473 38.3576 7.96247 38.3576 17.045Z" fill="white"/>
<path d="M0.669922 33.6274C0.669922 33.6274 12.4374 39.8599 21.9474 39.6124C27.8724 39.4549 31.9749 38.2924 36.7824 37.2574C41.5899 36.2149 48.6774 34.7149 53.1699 34.8649C57.3024 34.9999 65.5599 37.2424 71.7024 43.7299C71.7024 43.7299 64.4724 37.6399 52.5474 37.7974C52.5474 37.7974 46.8399 37.9174 37.5774 40.2724C26.3574 43.1224 20.3424 42.5449 20.3424 42.5449C20.3424 42.5449 8.52242 42.5299 0.669922 33.6349" fill="white"/>
<path d="M0.669922 41.3075C0.669922 41.3075 12.4374 47.54 21.9474 47.2925C27.8724 47.135 31.9749 45.9725 36.7824 44.9375C41.5899 43.895 48.6774 42.395 53.1699 42.545C57.3024 42.6875 65.5599 44.9225 71.7024 51.41C71.7024 51.41 64.4724 45.32 52.5474 45.4775C52.5474 45.4775 46.8399 45.5975 37.5774 47.9525C26.3574 50.8025 20.3424 50.225 20.3424 50.225C20.3424 50.225 8.52242 50.21 0.669922 41.315" fill="white"/>
<path d="M48.9399 28.5125H52.3374V20.195H61.1499V17.8925H52.3374V12.5525H61.5549V10.25H48.9399V28.5125Z" fill="white"/>
<path d="M66.5875 9.41748H62.98V12.1925H66.5875V9.41748ZM63.19 28.52H66.385V15.1775H63.19V28.52Z" fill="white"/>
<path d="M69.1675 28.5125H72.3625V22.445C72.3625 19.0925 74.23 17 77.0875 17C77.6275 17 78.28 17.0525 78.8575 17.2325V15.035C78.175 14.93 77.7025 14.855 76.75 14.855C74.9125 14.855 73.075 15.845 72.2275 17.2325H72.16V15.1625H69.1675V28.505V28.5125Z" fill="white"/>
<path d="M79.5625 28.1C81.025 28.7 82.69 28.835 84.325 28.835C87.4225 28.835 90.3775 27.53 90.3775 24.68C90.3775 20.4125 82.8625 21.2 82.8625 18.4775C82.8625 17.375 84.2875 16.8575 85.9225 16.8575C86.6725 16.8575 88.5775 17.195 89.29 17.5325L89.56 15.3875C88.3 15.1025 87.0775 14.8625 85.5775 14.8625C82.1425 14.8625 79.4575 16.1975 79.4575 18.9725C79.4575 22.715 86.9725 22.505 86.9725 24.9425C86.9725 26.3825 85.1725 26.855 83.71 26.855C82.795 26.855 80.9875 26.54 79.7275 25.9175L79.555 28.115L79.5625 28.1Z" fill="white"/>
<path d="M102.1 15.17H97.5102V11.3L94.3152 12.0875V15.1775H90.4077V17.1651H94.3152V24.9651C94.3152 27.6351 96.3552 28.8351 99.6552 28.8351C100.675 28.8351 101.665 28.6251 102.378 28.4676V26.3751C101.905 26.6076 101.185 26.8476 100.203 26.8476C98.7402 26.8476 97.5177 26.0076 97.5177 24.4701V17.1651H102.108V15.1775L102.1 15.17Z" fill="white"/>
<path d="M123.723 10.5875C122.088 10.145 120.22 9.935 118.653 9.935C114.37 9.935 111.033 11.66 111.033 14.9C111.033 20.5775 121.233 19.4525 121.233 23.54C121.233 25.685 118.51 26.525 116.575 26.525C114.843 26.525 112.803 26 111.648 25.6325L111.31 28.07C112.87 28.46 114.505 28.8275 116.17 28.8275C120.933 28.8275 124.84 27.2825 124.84 23.39C124.84 17.3675 114.64 18.185 114.64 14.675C114.64 12.77 116.883 12.245 118.788 12.245C120.558 12.245 121.51 12.4775 123.243 13.0025L123.723 10.595V10.5875Z" fill="white"/>
<path d="M129.7 21.845C129.7 19.31 131.71 16.85 135.138 16.85C138.565 16.85 140.545 19.31 140.545 21.845C140.545 24.23 138.88 26.84 135.138 26.84C131.395 26.84 129.7 24.2225 129.7 21.845ZM126.303 21.845C126.303 25.6625 129.91 28.835 135.145 28.835C140.38 28.835 143.95 25.67 143.95 21.845C143.95 17.7875 140.41 14.855 135.145 14.855C129.88 14.855 126.303 17.7875 126.303 21.845Z" fill="white"/>
<path d="M148.945 8.89252H145.75V28.52H148.945V8.89252Z" fill="white"/>
<path d="M162.19 23.3375C162.19 25.325 160.525 26.84 157.367 26.84C155.905 26.84 154.135 26.0825 154.135 24.6725C154.135 22.3175 158.417 22.1075 160.15 22.1075C160.832 22.1075 161.515 22.16 162.19 22.16V23.3375ZM152.875 18.2075C154.165 17.3675 156.107 16.85 157.907 16.85C161.102 16.85 162.19 18.0275 162.19 20.33C160.93 20.2775 160.045 20.2775 158.792 20.2775C155.492 20.2775 150.73 21.3275 150.73 24.6725C150.73 27.575 153.347 28.8275 157.09 28.8275C160.015 28.8275 161.717 27.5975 162.46 26.7875H162.527V28.5125H165.52C165.452 28.1225 165.385 27.4175 165.385 25.895V20.375C165.385 16.7375 163.382 14.855 158.417 14.855C156.205 14.855 154.3 15.38 152.702 16.115L152.875 18.2075Z" fill="white"/>
<path d="M168.062 28.5125H171.258V22.445C171.258 19.0925 173.125 17 175.982 17C176.53 17 177.175 17.0525 177.753 17.2325V15.035C177.07 14.93 176.597 14.855 175.645 14.855C173.807 14.855 171.97 15.845 171.122 17.2325H171.055V15.1625H168.062V28.505V28.5125Z" fill="white"/>
<path d="M178.165 26.435H178.51C178.908 26.435 179.245 26.2925 179.245 25.9175C179.245 25.655 179.05 25.3925 178.51 25.3925C178.353 25.3925 178.248 25.4075 178.165 25.415V26.435ZM178.165 28.1H177.685V25.0925C177.933 25.055 178.18 25.0175 178.533 25.0175C178.99 25.0175 179.29 25.115 179.463 25.25C179.643 25.385 179.74 25.5875 179.74 25.8725C179.74 26.27 179.478 26.51 179.155 26.6075V26.63C179.418 26.675 179.598 26.9225 179.658 27.365C179.733 27.83 179.8 28.0175 179.853 28.1075H179.35C179.275 28.01 179.208 27.7325 179.148 27.3425C179.073 26.96 178.885 26.8175 178.503 26.8175H178.165V28.115V28.1ZM178.668 24.2525C177.483 24.2525 176.508 25.2725 176.508 26.5325C176.508 27.7925 177.483 28.8275 178.675 28.8275C179.875 28.835 180.835 27.815 180.835 26.5475C180.835 25.28 179.875 24.26 178.675 24.26H178.668V24.2525ZM178.675 23.8325C180.153 23.8325 181.33 25.0325 181.33 26.5325C181.33 28.0325 180.153 29.24 178.668 29.24C177.183 29.24 175.99 28.055 175.99 26.5325C175.99 25.01 177.19 23.8325 178.668 23.8325H178.675Z" fill="white"/>
</g>
<defs>
<clipPath id="clip0_4015_243">
<rect width="182" height="52" fill="white"/>
</clipPath>
</defs>
</svg>
