<svg width="269" height="34" viewBox="0 0 269 34" fill="none" xmlns="http://www.w3.org/2000/svg">
<path d="M6.83194 12.7311C3.45688 12.7311 0.647461 10.4455 0.647461 6.96055C0.647461 3.47555 3.44745 1.18054 6.83194 1.18054H17.2683V3.94777H7.91611C6.09659 3.94777 4.51276 4.9961 4.51276 6.96055C4.51276 8.92499 6.09659 9.95443 7.91611 9.95443H13.4501V8.10332H9.33968V5.57221H17.2683V12.7405H6.83194V12.7311ZM19.8231 12.7311V1.18054H33.116V3.94777H23.6413V5.56276H33.116V8.09388H23.6413V9.94499H33.116V12.7217H19.8231V12.7311ZM46.8897 12.7311L39.1214 3.69277H39.0931V12.7311H35.4352V1.18054H41.4028L47.8419 8.68887H47.889V1.18054H51.3866V12.7311H46.8897ZM53.9132 12.7311V1.18054H67.1872V3.94777H57.722V5.56276H67.1872V8.09388H57.722V9.94499H67.1872V12.7217H53.9132V12.7311ZM82.0828 8.76443C83.0821 10.0961 84.0814 11.4089 85.0619 12.7311H80.7064L78.0949 9.11388H73.334V12.7311H69.5064V1.18054H80.3575C82.903 1.18054 85.2599 2.35165 85.2599 5.18499C85.2599 7.24387 83.9495 8.33943 82.0828 8.76443ZM79.6033 3.76832H73.3434V6.50721H79.6033C80.4707 6.50721 81.3097 6.11054 81.3097 5.14721C81.3097 4.18387 80.4895 3.76832 79.6033 3.76832Z" fill="white"/>
<path d="M101.975 12.7311L100.551 10.5305H91.5858L90.2565 12.7311H85.9104L93.4713 1.18053H99.0713L106.604 12.7311H101.984H101.975ZM96.1676 3.26775H96.0356L93.2168 7.7822H99.0053L96.1582 3.26775H96.1676ZM107.745 12.7311V1.18053H111.553V9.95442H120.934V12.7311H107.745ZM141.618 12.7311H130.682V1.18053H141.618C145.002 1.18053 147.802 3.4472 147.802 6.96053C147.802 10.4739 144.984 12.7311 141.618 12.7311ZM140.524 3.94775H134.472V9.95442H140.524C142.344 9.95442 143.928 8.92498 143.928 6.96053C143.928 4.99609 142.363 3.94775 140.524 3.94775ZM158.399 8.69831V12.7216H154.6V8.72664L147.133 1.17108H152.054L156.721 5.76108L161.359 1.17108H165.932L158.399 8.69831ZM178.282 12.7216L170.768 4.65609H170.721V12.7216H167.082L167.063 1.17108H172.361L179.309 8.67942H179.357V1.17108H182.854V12.7216H178.282Z" fill="white"/>
<path d="M199.89 12.7311L198.466 10.5305H189.5L188.171 12.7311H183.816L191.377 1.18054H196.977L204.509 12.7311H199.89ZM194.082 3.26776H193.96L191.141 7.78221H196.929L194.082 3.26776ZM222.94 12.7311V3.96665H222.846L217.906 12.7311H214.22L209.393 3.96665H209.298V12.7311H205.659V1.18054H211.721L216.105 9.29332H216.181L220.545 1.18054H226.541V12.7311H222.931H222.94ZM229.077 12.7311V1.18054H232.886V12.7311H229.077ZM241.116 12.7311C237.77 12.7311 234.932 10.4455 234.932 6.96055C234.932 3.47555 237.751 1.18054 241.116 1.18054H250.582V3.94777H242.21C240.391 3.94777 238.807 4.9961 238.807 6.96055C238.807 8.92499 240.391 9.95443 242.21 9.95443H250.582V12.7311H241.116ZM264.516 12.7311H253.014V10.0678H263.3C263.884 10.0678 264.497 9.90721 264.497 9.20832C264.497 8.50943 263.893 8.35832 263.3 8.35832H256.37C254.381 8.35832 252.807 6.77166 252.807 4.75999C252.807 2.74832 254.353 1.18054 256.37 1.18054H267.966V3.84388H257.605C257.087 3.84388 256.625 4.05166 256.625 4.63721C256.625 5.22277 257.115 5.43054 257.605 5.43054H264.516C266.637 5.43054 268.362 6.90387 268.362 9.09499C268.362 11.2861 266.637 12.7405 264.516 12.7405V12.7311Z" fill="white"/>
<path d="M2.38199 29.58V17.3872H4.13551L8.70789 28.0122L13.3745 17.3872H15.0432V29.58H13.9496V18.3128H13.9119L9.25468 29.58H8.16109L3.50387 18.3694H3.46616V29.58H2.37256H2.38199Z" fill="white"/>
<path d="M19.1159 18.6528H17.9375V17.3872H19.1159V18.6528ZM19.0311 21.0989V29.58H18.0223V21.0989H19.0311Z" fill="white"/>
<path d="M24.5652 20.8533C26.1678 20.8533 27.516 21.4106 27.648 23.205H26.5544C26.4507 22.1378 25.5079 21.7883 24.4615 21.7883C23.5187 21.7883 22.5571 22.1567 22.5571 23.1578C22.5571 24.4044 24.1881 24.2911 26.4884 25.1033C27.3652 25.4056 27.9214 26.1705 27.9214 27.0772C27.9214 28.985 26.149 29.8444 24.3672 29.8444C22.8965 29.8444 21.2184 29.155 21.1807 27.2756H22.2743C22.3591 28.5411 23.4716 28.9094 24.6217 28.9094C25.6965 28.9094 26.8278 28.3994 26.8278 27.2189C26.8278 26.0383 25.4985 25.8022 24.1504 25.5C22.8211 25.1789 21.4729 24.7917 21.4729 23.2239C21.4729 21.4672 23.0945 20.8628 24.5746 20.8628L24.5652 20.8533Z" fill="white"/>
<path d="M32.9934 20.8533C34.5961 20.8533 35.9442 21.4106 36.0762 23.205H34.9826C34.8789 22.1378 33.9361 21.7883 32.8897 21.7883C31.9469 21.7883 30.9853 22.1567 30.9853 23.1578C30.9853 24.4044 32.6163 24.2911 34.9166 25.1033C35.7934 25.4056 36.3496 26.1705 36.3496 27.0772C36.3496 28.985 34.5772 29.8444 32.7954 29.8444C31.3247 29.8444 29.6466 29.155 29.6089 27.2756H30.7025C30.7873 28.5411 31.8998 28.9094 33.0499 28.9094C34.1247 28.9094 35.256 28.3994 35.256 27.2189C35.256 26.0383 33.9267 25.8022 32.5786 25.5C31.2493 25.1789 29.9011 24.7917 29.9011 23.2239C29.9011 21.4672 31.5227 20.8628 33.0028 20.8628L32.9934 20.8533Z" fill="white"/>
<path d="M39.7153 18.6528H38.5369V17.3872H39.7153V18.6528ZM39.6305 21.0989V29.58H38.6217V21.0989H39.6305Z" fill="white"/>
<path d="M49.6329 25.3395C49.6329 27.5684 48.3885 29.835 45.6922 29.835C42.9959 29.835 41.7515 27.5684 41.7515 25.3395C41.7515 23.1106 42.9959 20.8439 45.6922 20.8439C48.3885 20.8439 49.6329 23.1106 49.6329 25.3395ZM45.6922 21.7789C43.6558 21.7789 42.8451 23.7717 42.8451 25.3395C42.8451 26.9073 43.6558 28.9001 45.6922 28.9001C47.7285 28.9001 48.5393 26.9073 48.5393 25.3395C48.5393 23.7717 47.7285 21.7789 45.6922 21.7789Z" fill="white"/>
<path d="M52.7347 29.5801H51.726V23.0067C51.726 22.3456 51.6788 21.675 51.6411 21.0989H52.6876L52.7347 22.3456L52.7724 22.3834C53.3664 21.335 54.328 20.8439 55.4216 20.8439C58.1839 20.8439 58.4007 23.29 58.4007 24.2723V29.5706H57.3919V24.1023C57.3919 22.6289 56.5529 21.7695 55.167 21.7695C53.4983 21.7695 52.7441 23.1673 52.7441 24.6878V29.5706L52.7347 29.5801Z" fill="white"/>
<path d="M69.035 29.835C67.0929 29.835 65.4619 28.4183 65.4148 26.4067H66.5932C66.631 28.2767 68.0074 28.8244 69.6478 28.8244C71.0148 28.8244 72.5797 28.0311 72.5797 26.4728C72.5797 25.2544 71.703 24.6783 70.6754 24.3478C68.705 23.6866 65.707 23.0633 65.707 20.4283C65.707 18.3033 67.6586 17.1322 69.5818 17.1322C71.1845 17.1322 73.2774 17.6894 73.5414 20.0411H72.3629C72.3252 18.5394 70.9676 18.1522 69.7138 18.1522C68.4599 18.1522 66.8855 18.7944 66.8855 20.2772C66.8855 23.7433 73.7676 22.1661 73.7676 26.3689C73.7676 29.0228 71.4956 29.835 69.0444 29.835H69.035Z" fill="white"/>
<path d="M75.6813 21.0989L78.5284 28.1917L81.3567 21.0989H82.4503L77.7836 32.8195H76.6712L77.9533 29.5801L74.4463 21.0989H75.6813Z" fill="white"/>
<path d="M86.5703 20.8533C88.173 20.8533 89.5211 21.4106 89.6531 23.205H88.5595C88.4558 22.1378 87.513 21.7883 86.4666 21.7883C85.5238 21.7883 84.5622 22.1567 84.5622 23.1578C84.5622 24.4044 86.1932 24.2911 88.4935 25.1033C89.3703 25.4056 89.9265 26.1705 89.9265 27.0772C89.9265 28.985 88.1541 29.8444 86.3723 29.8444C84.9016 29.8444 83.2235 29.155 83.1858 27.2756H84.2794C84.3642 28.5411 85.4767 28.9094 86.6269 28.9094C87.7016 28.9094 88.8329 28.3994 88.8329 27.2189C88.8329 26.0383 87.5036 25.8022 86.1555 25.5C84.8262 25.1789 83.478 24.7917 83.478 23.2239C83.478 21.4672 85.0996 20.8628 86.5797 20.8628L86.5703 20.8533Z" fill="white"/>
<path d="M92.9056 22.0339H91.218V21.1084H92.9056V19.3045L93.9143 18.8606V21.1084H95.8375V22.0339H93.9143V27.71C93.8954 28.4845 94.3008 28.9095 95.0739 28.9095C95.3756 28.9095 95.6773 28.8906 95.9507 28.8056V29.6839C95.6301 29.7689 95.2624 29.835 94.9231 29.835C92.783 29.835 92.8961 28.4656 92.8961 27.3228V22.0339H92.9056Z" fill="white"/>
<path d="M98.3829 25.5755C98.4206 27.3794 99.2408 28.9 101.315 28.9C102.512 28.9 103.502 28.0405 103.757 26.8694H104.822C104.303 28.9 103.031 29.8255 100.994 29.8255C98.4678 29.8255 97.2893 27.6439 97.2893 25.33C97.2893 23.0161 98.5526 20.8344 101.07 20.8344C103.898 20.8344 104.926 22.9122 104.926 25.5661H98.3829V25.5755ZM103.832 24.65C103.709 23.0161 102.842 21.7789 101.089 21.7789C99.4388 21.7789 98.562 23.1672 98.4206 24.65H103.832Z" fill="white"/>
<path d="M108.169 22.355L108.207 22.3928C108.801 21.3444 109.762 20.8533 110.856 20.8533C112.185 20.8533 113.231 21.5994 113.599 22.7139C114.221 21.7128 115.202 20.8533 116.512 20.8533C119.275 20.8533 119.491 23.2994 119.491 24.2817V29.58H118.483V24.1117C118.483 22.6383 117.644 21.7789 116.258 21.7789C114.589 21.7789 113.835 23.1767 113.835 24.6972V29.58H112.826V24.1117C112.826 22.6383 111.987 21.7789 110.601 21.7789C108.933 21.7789 108.178 23.1767 108.178 24.6972V29.58H107.17V23.0067C107.17 22.3456 107.122 21.675 107.085 21.0989H108.131L108.178 22.3456L108.169 22.355Z" fill="white"/>
<path d="M124.969 20.8533C126.571 20.8533 127.92 21.4106 128.052 23.205H126.958C126.854 22.1378 125.911 21.7883 124.865 21.7883C123.922 21.7883 122.961 22.1567 122.961 23.1578C122.961 24.4044 124.592 24.2911 126.892 25.1033C127.769 25.4056 128.325 26.1705 128.325 27.0772C128.325 28.985 126.553 29.8444 124.771 29.8444C123.3 29.8444 121.622 29.155 121.584 27.2756H122.678C122.763 28.5411 123.875 28.9094 125.025 28.9094C126.1 28.9094 127.231 28.3994 127.231 27.2189C127.231 26.0383 125.902 25.8022 124.554 25.5C123.225 25.1789 121.876 24.7917 121.876 23.2239C121.876 21.4672 123.498 20.8628 124.978 20.8628L124.969 20.8533Z" fill="white"/>
</svg>
