<svg width="160" height="35" viewBox="0 0 160 35" fill="none" xmlns="http://www.w3.org/2000/svg">
<g clip-path="url(#clip0_4015_181)">
<path d="M41.7724 17.055C41.7724 15.0675 40.2199 13.4325 38.1949 13.4325C36.1699 13.4325 34.6174 15.075 34.6174 17.055C34.6174 19.035 36.1699 20.6325 38.1949 20.6325C40.2199 20.6325 41.7724 19.035 41.7724 17.055ZM47.9824 17.1C47.9824 22.2375 43.6249 26.3325 38.2324 26.3325C32.8399 26.3325 28.4824 22.23 28.4824 17.1C28.4824 11.97 32.8399 7.77751 38.2324 7.77751C43.6249 7.73251 47.9824 11.9175 47.9824 17.1ZM67.4374 13.35C67.4374 9.90001 65.0224 6.8775 61.4374 6.8775H56.4724V19.95H61.4374C65.0149 19.95 67.4374 16.8 67.4374 13.35ZM74.1274 13.35C74.1274 20.73 68.9074 25.7775 61.5724 25.7775H50.9599C50.4424 25.7775 50.0524 25.3875 50.0524 24.915V1.87501C50.0524 1.40251 50.4424 1.0125 50.9599 1.0125H61.5724C68.9524 1.0575 74.1274 5.97751 74.1274 13.35ZM84.5224 20.64C86.5099 20.64 88.0999 18.9975 88.0999 17.0175C88.0999 15.0375 86.5474 13.395 84.5224 13.395C82.4974 13.395 80.9449 15.0375 80.9449 17.0175C80.9449 18.9975 82.5424 20.64 84.5224 20.64ZM83.5699 7.74C85.6849 7.74 87.3649 8.52 88.0999 9.5925V9.075C88.0999 8.6025 88.4899 8.2575 88.9174 8.2575H93.4024C93.8749 8.2575 94.2199 8.6025 94.2199 9.075V24.9525C94.2199 25.425 93.8749 25.77 93.4024 25.77H88.9549C88.4824 25.77 88.1374 25.425 88.1374 24.9525V24.435C87.4024 25.515 85.6774 26.2875 83.5624 26.2875C79.0774 26.2875 74.7574 22.71 74.7574 16.965C74.7574 11.22 79.0699 7.7325 83.5624 7.7325M104.787 20.6325C106.775 20.6325 108.365 18.99 108.365 17.01C108.365 15.03 106.812 13.3875 104.787 13.3875C102.762 13.3875 101.21 15.03 101.21 17.01C101.21 18.99 102.807 20.6325 104.787 20.6325ZM103.707 7.7325C105.867 7.7325 107.547 8.55 108.327 9.5025V1.8675C108.327 1.395 108.717 1.05001 109.145 1.05001H113.675C114.147 1.05001 114.492 1.395 114.492 1.8675V24.99C114.492 25.4625 114.147 25.8075 113.675 25.8075H109.227C108.755 25.8075 108.41 25.4625 108.41 24.99V24.4725C107.502 25.5525 105.95 26.325 103.835 26.325C99.3499 26.325 95.0299 22.7475 95.0299 17.0025C95.0299 11.2575 99.3049 7.72501 103.7 7.72501M125.06 20.625C127.047 20.625 128.637 18.9825 128.637 17.0025C128.637 15.0225 127.085 13.38 125.06 13.38C123.035 13.38 121.482 15.0225 121.482 17.0025C121.527 19.0275 123.08 20.625 125.06 20.625ZM124.025 7.72501C126.185 7.72501 127.865 8.54251 128.645 9.49501V1.86001C128.645 1.38751 129.035 1.04251 129.462 1.04251H133.947C134.42 1.04251 134.765 1.38751 134.765 1.86001V24.9825C134.765 25.455 134.42 25.8 133.947 25.8H129.5C129.027 25.8 128.682 25.455 128.682 24.9825V24.465C127.775 25.545 126.222 26.3175 124.107 26.3175C119.622 26.3175 115.302 22.74 115.302 16.995C115.302 11.25 119.577 7.7175 124.017 7.7175M149.69 28.2975C148.565 32.01 145.977 34.08 141.927 34.08C139.73 34.08 137.57 33.345 136.19 32.1375C135.972 31.92 135.845 31.665 135.845 31.4025C135.845 31.185 135.935 30.93 136.145 30.6675L137.825 28.125C138.087 27.78 138.47 27.735 138.56 27.735C138.95 27.735 139.122 27.825 139.467 28.08C139.985 28.425 140.72 28.86 141.537 28.86C142.227 28.86 143.135 28.56 143.48 27.525L144.042 25.755H141.282C140.72 25.755 140.375 25.365 140.202 24.8925L135.672 9.66C135.582 9.27 135.545 9.0525 135.545 8.925C135.545 8.58 135.807 8.28 136.28 8.28H141.627C142.1 8.28 142.362 8.715 142.49 9.1425L145.467 20.1H145.685L148.055 9.1425C148.145 8.7075 148.445 8.28 148.917 8.28H154.355C154.872 8.28 155.09 8.58 155.09 8.925C155.09 9.0525 155.045 9.27 154.962 9.66L149.697 28.2975M22.0699 22.3425C19.9099 25.32 16.3774 26.31 13.2274 26.31C5.98244 26.31 0.627441 20.9175 0.627441 13.41C0.672441 6.2025 6.45494 0.465008 13.9999 0.465008C19.6099 0.465008 24.0949 2.835 26.1274 7.365C26.3899 7.8825 26.5624 8.745 25.0474 9.0075L21.0799 9.6975C20.1724 9.87 19.6549 9.2625 19.4824 9.0075C18.3199 7.41001 16.4224 6.33001 14.1349 6.33001C10.1674 6.33001 7.36244 9.3525 7.36244 13.365C7.36244 17.8125 10.5574 20.4 14.0524 20.4C16.3849 20.4 18.2824 19.5375 19.5349 17.895H16.0399C15.5224 17.895 15.1324 17.505 15.1324 17.0325V13.71C15.1324 13.2375 15.5224 12.8475 16.0399 12.8475H26.6974C27.2149 12.8475 27.6049 13.2375 27.6049 13.71V24.885C27.6049 25.3575 27.2149 25.7475 26.6974 25.7475H22.9849C22.4674 25.7475 22.0774 25.3575 22.0774 24.885V22.3425M155.87 0.382507C153.972 0.382507 152.42 1.93501 152.42 3.83251C152.42 5.73 153.972 7.2825 155.87 7.2825C157.767 7.2825 159.32 5.73 159.32 3.83251C159.32 1.93501 157.767 0.382507 155.87 0.382507ZM155.87 6.5925C154.362 6.5925 153.11 5.34 153.11 3.83251C153.11 2.32501 154.362 1.07251 155.87 1.07251C157.377 1.07251 158.63 2.32501 158.63 3.83251C158.63 5.34 157.377 6.5925 155.87 6.5925Z" fill="white"/>
<path d="M156.582 3.20252C156.582 3.03002 156.537 2.90252 156.41 2.85752C156.32 2.76752 156.147 2.68502 156.02 2.68502H155.412V3.67502H156.02C156.192 3.67502 156.32 3.63002 156.41 3.50252C156.5 3.41252 156.582 3.33002 156.582 3.20252ZM155.247 5.74502H154.602C154.572 5.74502 154.542 5.73002 154.512 5.70002C154.512 5.65502 154.467 5.65502 154.467 5.61002V2.03252C154.467 2.00252 154.482 1.97252 154.512 1.94252C154.557 1.94252 154.557 1.89752 154.602 1.89752H156.027C156.5 1.89752 156.845 1.98752 157.107 2.24252C157.37 2.50502 157.497 2.80502 157.497 3.15002C157.497 3.41252 157.452 3.62252 157.28 3.79502C157.107 4.01252 156.98 4.14002 156.762 4.26752L157.58 5.52002C157.625 5.56502 157.625 5.61002 157.58 5.69252C157.58 5.73752 157.535 5.73752 157.49 5.73752H156.845C156.8 5.73752 156.755 5.73752 156.672 5.69252C156.627 5.69252 156.627 5.64752 156.582 5.60252L155.892 4.44002H155.375V5.56502C155.375 5.59502 155.36 5.62502 155.33 5.65502C155.285 5.70002 155.285 5.74502 155.24 5.74502H155.247Z" fill="white"/>
</g>
<defs>
<clipPath id="clip0_4015_181">
<rect width="160" height="35" fill="white"/>
</clipPath>
</defs>
</svg>
