<svg width="140" height="24" viewBox="0 0 140 24" fill="none" xmlns="http://www.w3.org/2000/svg">
<g clip-path="url(#clip0_4015_179)">
<path d="M30.2803 6.69533C29.5644 7.81769 29.225 9.61769 29.225 12.0318C29.225 17.3312 31.0652 19.7453 35.1485 19.7453C39.2318 19.7453 41.003 17.3312 41.003 12.1006C41.003 6.87004 39.2 4.41886 35.1485 4.41886C32.9371 4.41886 31.1977 5.23416 30.2803 6.69533ZM44.1318 4.08004C45.5265 5.9171 46.3114 8.90298 46.3114 12.4024C46.3114 16.3783 45.0546 19.6395 42.8061 21.4395C41.1038 22.7948 38.5212 23.5465 35.4561 23.5465C31.1023 23.5465 27.6606 22.1171 25.8947 19.5706C24.5637 17.7018 23.922 15.2189 23.922 12.1959C23.922 7.84945 25.1152 4.55121 27.3637 2.78297C29.1296 1.35886 31.9243 0.575327 35.122 0.575327C39.1735 0.575327 42.4083 1.83003 44.1424 4.07474M60.6137 11.5818C61.9076 11.5818 62.6553 11.4124 63.1644 10.9359C63.7796 10.4277 64.1508 9.34239 64.1508 8.08239C64.1508 6.58945 63.5409 5.49886 62.4856 5.12827C62.1091 4.99062 61.4993 4.9218 60.7144 4.9218H54.0432V11.5818H60.6137ZM54.0432 23.5412H49.2068V0.877092H60.5447C64.522 0.877092 65.922 1.28474 67.4174 2.9471C68.7485 4.37651 69.4591 6.24533 69.4591 8.24651C69.4591 10.6236 68.5099 12.8365 66.9402 14.16C65.6144 15.2771 64.3841 15.6212 61.8015 15.6212H54.0432V23.5359V23.5412ZM90.6924 23.5412H85.8561V14.1971H77.1114V23.5412H72.275V0.882387H77.1114V10.1577H85.8561V0.882387H90.6924V23.5412ZM99.9887 6.69004C99.2728 7.81239 98.9334 9.61239 98.9334 12.0265C98.9334 17.3259 100.768 19.74 104.852 19.74C108.935 19.74 110.706 17.3259 110.706 12.0953C110.706 6.86474 108.903 4.41356 104.852 4.41356C102.64 4.41356 100.906 5.22886 99.9887 6.69004ZM113.84 4.07474C115.235 5.9118 116.014 8.89769 116.014 12.3971C116.014 16.373 114.758 19.6342 112.509 21.4342C110.807 22.7895 108.219 23.5412 105.159 23.5412C100.805 23.5412 97.369 22.1118 95.5978 19.5653C94.272 17.6965 93.6197 15.2136 93.6197 12.1906C93.6197 7.84416 94.8076 4.54592 97.0561 2.77768C98.8273 1.35357 101.622 0.570036 104.82 0.570036C108.866 0.570036 112.101 1.82474 113.84 4.06945M1.09774 19.4171H12.9341C14.769 19.4171 15.7765 19.2424 16.3652 18.8612C17.097 18.4112 17.5106 17.6489 17.5106 16.7489C17.5106 15.6742 16.9538 14.7424 16.0205 14.2924C15.5326 14.0171 14.6311 13.8795 13.5227 13.8795H8.58562C5.81214 13.8795 4.0038 13.3924 2.79471 12.3547C1.40532 11.1424 0.609863 9.27357 0.609863 7.2618C0.609863 4.31827 2.2432 1.75592 4.63486 0.924741C5.67426 0.543565 6.88865 0.437683 9.5932 0.437683H21.6576V4.55651H10.7015C8.51668 4.59357 7.6735 4.59357 6.94168 4.76298C5.97123 5.00651 5.38259 5.90651 5.38259 7.11886C5.38259 8.15651 5.87047 8.98769 6.69774 9.36886C7.39244 9.68122 8.61744 9.75004 10.2826 9.75004H13.9947C17.394 9.75004 19.2341 10.2689 20.5864 11.6559C21.6258 12.6936 22.3205 14.7371 22.3205 16.7436C22.3205 19.2053 21.175 21.4924 19.372 22.5989C18.2265 23.3242 16.7682 23.5359 13.3371 23.5359H1.09774V19.4171ZM118.178 19.4171H130.014C131.855 19.4171 132.857 19.2424 133.451 18.8612C134.177 18.4112 134.596 17.6489 134.596 16.7489C134.596 15.6742 134.045 14.7424 133.106 14.2924C132.618 14.0171 131.717 13.8795 130.608 13.8795H125.671C122.898 13.8795 121.095 13.3924 119.88 12.3547C118.496 11.1424 117.695 9.27357 117.695 7.2618C117.695 4.31827 119.329 1.75592 121.72 0.924741C122.765 0.543565 123.974 0.437683 126.684 0.437683H138.749V4.55651H127.798C125.613 4.59357 124.77 4.59357 124.038 4.76298C123.067 5.00651 122.474 5.90651 122.474 7.11886C122.474 8.15651 122.961 8.98769 123.794 9.36886C124.489 9.68122 125.714 9.75004 127.379 9.75004H131.091C134.495 9.75004 136.33 10.2689 137.683 11.6559C138.722 12.6936 139.417 14.7371 139.417 16.7436C139.417 19.2053 138.271 21.4924 136.468 22.5989C135.323 23.3242 133.87 23.5359 130.433 23.5359H118.194V19.4171H118.178Z" fill="white"/>
</g>
<defs>
<clipPath id="clip0_4015_179">
<rect width="140" height="24" fill="white"/>
</clipPath>
</defs>
</svg>
