<svg width="72" height="72" viewBox="0 0 72 72" fill="none" xmlns="http://www.w3.org/2000/svg">
<path d="M61.9284 38.3571C61.9284 53.9789 49.2644 66.6429 33.6427 66.6429C18.0209 66.6429 5.35693 53.9789 5.35693 38.3571C5.35693 22.7354 18.0209 10.0714 33.6427 10.0714" stroke="#6AC89B" stroke-width="2.5" stroke-linecap="round" stroke-linejoin="round"/>
<path d="M5.35693 38.3571H37.9943" stroke="#6AC89B" stroke-width="2.5" stroke-linecap="round" stroke-linejoin="round"/>
<path d="M33.6428 10.0714C27.108 18.1074 23.2981 28.0133 22.7637 38.3571C23.2981 48.701 27.108 58.6069 33.6428 66.6429C38.7876 60.3163 42.2434 52.8305 43.7416 44.8846" stroke="#6AC89B" stroke-width="2.5" stroke-linecap="round" stroke-linejoin="round"/>
<path d="M57.7786 30.1317C56.253 31.6605 53.8903 31.6605 52.3647 30.1317L43.2663 21.0122C37.1796 14.8544 45.1278 1.24967 55.0716 11.3095C64.9981 1.26736 72.9463 14.8723 66.877 21.0122L57.7786 30.1317Z" stroke="#A78BFA" stroke-width="2.5" stroke-linecap="round" stroke-linejoin="round"/>
</svg>
