<svg width="72" height="72" viewBox="0 0 72 72" fill="none" xmlns="http://www.w3.org/2000/svg">
<path d="M32.4641 52.5H10.0712C8.8209 52.5 7.62182 52.0031 6.73771 51.1192C5.85362 50.2353 5.35693 49.036 5.35693 47.7857V10.0714C5.35693 8.8211 5.85362 7.62202 6.73771 6.73792C7.62182 5.85382 8.8209 5.35714 10.0712 5.35714H47.7855C49.0358 5.35714 50.2351 5.85382 51.119 6.73792C52.0029 7.62202 52.4998 8.8211 52.4998 10.0714V25.3929" stroke="#6AC89B" stroke-width="2.5" stroke-linecap="round" stroke-linejoin="round"/>
<path d="M43.0713 64.2857V52.5C43.0713 51.1984 44.1266 50.1429 45.4284 50.1429H64.2856C65.5872 50.1429 66.6427 51.1984 66.6427 52.5V64.2857C66.6427 65.5873 65.5872 66.6429 64.2856 66.6429H45.4284C44.1266 66.6429 43.0713 65.5873 43.0713 64.2857Z" stroke="#A78BFA" stroke-width="2.5" stroke-linecap="round" stroke-linejoin="round"/>
<path d="M46.6069 50.1429V44.25C46.6069 39.6936 50.3006 36 54.8569 36C59.4133 36 63.1069 39.6936 63.1069 44.25V50.1429" stroke="#A78BFA" stroke-width="2.5" stroke-linecap="round" stroke-linejoin="round"/>
<path d="M28.9284 27.75C32.8338 27.75 35.9998 24.584 35.9998 20.6786C35.9998 16.7731 32.8338 13.6071 28.9284 13.6071C25.0229 13.6071 21.8569 16.7731 21.8569 20.6786C21.8569 24.584 25.0229 27.75 28.9284 27.75Z" stroke="#6AC89B" stroke-width="2.5" stroke-linecap="round" stroke-linejoin="round"/>
<path d="M15.7285 41.4214C17.2629 39.3695 19.2553 37.7043 21.547 36.5584C23.8387 35.4126 26.3663 34.8178 28.9285 34.8214C31.4907 34.8178 34.0183 35.4126 36.31 36.5584C36.7647 36.7857 37.2076 37.0335 37.6375 37.3007" stroke="#6AC89B" stroke-width="2.5" stroke-linecap="round" stroke-linejoin="round"/>
</svg>
