<svg width="72" height="72" viewBox="0 0 72 72" fill="none" xmlns="http://www.w3.org/2000/svg">
<path d="M14.7879 21.8587C18.6929 21.8587 21.8585 18.6931 21.8585 14.7881C21.8585 10.8831 18.6929 7.7175 14.7879 7.7175C10.8829 7.7175 7.71729 10.8831 7.71729 14.7881C7.71729 18.6931 10.8829 21.8587 14.7879 21.8587Z" stroke="#A78BFA" stroke-width="2.5" stroke-linecap="round" stroke-linejoin="round"/>
<path d="M21.8584 14.7881H64.2822" stroke="#A78BFA" stroke-width="2.5" stroke-linecap="round" stroke-linejoin="round"/>
<path d="M35.9998 43.0706C39.9048 43.0706 43.0704 39.905 43.0704 36C43.0704 32.095 39.9048 28.9294 35.9998 28.9294C32.0948 28.9294 28.9292 32.095 28.9292 36C28.9292 39.905 32.0948 43.0706 35.9998 43.0706Z" stroke="#6AC89B" stroke-width="2.5" stroke-linecap="round" stroke-linejoin="round"/>
<path d="M7.71729 36H28.9292" stroke="#6AC89B" stroke-width="2.5" stroke-linecap="round" stroke-linejoin="round"/>
<path d="M43.0703 36H64.2822" stroke="#6AC89B" stroke-width="2.5" stroke-linecap="round" stroke-linejoin="round"/>
<path d="M57.2117 64.2825C61.1166 64.2825 64.2824 61.1168 64.2824 57.2119C64.2824 53.307 61.1166 50.1413 57.2117 50.1413C53.3069 50.1413 50.1411 53.307 50.1411 57.2119C50.1411 61.1168 53.3069 64.2825 57.2117 64.2825Z" stroke="#A78BFA" stroke-width="2.5" stroke-linecap="round" stroke-linejoin="round"/>
<path d="M50.141 57.2119H7.71729" stroke="#A78BFA" stroke-width="2.5" stroke-linecap="round" stroke-linejoin="round"/>
</svg>
