<svg width="72" height="72" viewBox="0 0 72 72" fill="none" xmlns="http://www.w3.org/2000/svg">
<path d="M14.7855 50.7086H12.4284L5.35693 52.5L10.0712 38.3572V10.0715C10.0712 8.82113 10.5679 7.62205 11.452 6.73795C12.3361 5.85385 13.5352 5.35717 14.7855 5.35717H52.4998C53.75 5.35717 54.9493 5.85385 55.8333 6.73795C56.7172 7.62205 57.2141 8.82113 57.2141 10.0715V24.8572" stroke="#A78BFA" stroke-width="2.5" stroke-linecap="round" stroke-linejoin="round"/>
<path d="M20.5713 15.4286H46.2856" stroke="#A78BFA" stroke-width="2.5" stroke-linecap="round" stroke-linejoin="round"/>
<path d="M20.5713 25.7143H33.4284" stroke="#A78BFA" stroke-width="2.5" stroke-linecap="round" stroke-linejoin="round"/>
<rect x="25.7139" y="36" width="41.1429" height="30.8571" rx="2" stroke="#6AC89B" stroke-width="2.5"/>
<path d="M41.1426 56.5714C41.6721 58.0696 43.1008 59.1429 44.7803 59.1429H47.3517C49.4819 59.1429 51.2088 57.416 51.2088 55.2857V54.6429C51.2088 52.5126 49.4819 50.7857 47.3517 50.7857H46.066H47.0302C48.983 50.7857 50.566 49.2027 50.566 47.25C50.566 45.2973 48.983 43.7143 47.0302 43.7143L45.1017 43.7143C43.4832 43.7143 42.1188 44.8017 41.6991 46.2857" stroke="#6AC89B" stroke-width="2.5" stroke-linecap="round" stroke-linejoin="round"/>
</svg>
